<?xml version="1.0" standalone="no"?>
<!DOCTYPE svg PUBLIC "-//W3C//DTD SVG 20010904//EN"
 "http://www.w3.org/TR/2001/REC-SVG-20010904/DTD/svg10.dtd">
<svg version="1.0" xmlns="http://www.w3.org/2000/svg"
 width="700.000000pt" height="700.000000pt" viewBox="0 0 700.000000 700.000000"
 preserveAspectRatio="xMidYMid meet">
<metadata>
Created by potrace 1.14, written by Peter Selinger 2001-2017
</metadata>
<g transform="translate(0.000000,700.000000) scale(0.100000,-0.100000)"
fill="#000000" stroke="none">
<path d="M2775 6844 c-148 -86 -290 -167 -314 -180 -40 -23 -1180 -678 -1281
-737 -70 -40 -140 -81 -195 -112 -27 -16 -63 -36 -80 -46 -16 -9 -67 -38 -113
-64 -81 -47 -95 -62 -106 -118 -3 -12 -23 -89 -46 -172 -23 -82 -43 -157 -45
-165 -2 -8 -52 -193 -110 -410 -59 -217 -108 -399 -109 -405 -2 -5 -10 -35
-19 -65 -8 -30 -46 -167 -82 -305 -37 -137 -114 -422 -171 -633 -87 -322 -102
-387 -92 -405 6 -12 61 -107 121 -212 61 -104 121 -210 135 -235 14 -25 63
-110 109 -189 45 -79 83 -145 83 -146 0 -2 21 -39 46 -82 26 -43 56 -94 67
-113 11 -19 88 -154 172 -300 84 -146 163 -283 175 -305 12 -22 73 -128 135
-235 62 -107 153 -265 202 -350 l89 -155 304 -83 c168 -45 355 -96 415 -111
61 -16 187 -50 280 -76 94 -25 193 -52 220 -59 28 -8 154 -42 280 -76 127 -34
237 -63 245 -65 8 -2 65 -18 125 -34 175 -49 409 -112 425 -116 8 -2 51 -13
95 -25 44 -12 112 -30 150 -40 l70 -19 280 161 c154 88 299 171 323 185 23 13
93 53 154 89 61 35 112 64 114 64 3 0 23 12 46 26 23 15 63 38 88 53 26 14
176 100 333 191 158 91 297 171 309 177 13 7 174 99 358 206 l335 193 43 154
c23 85 44 164 47 175 2 11 23 88 45 170 23 83 43 157 45 165 2 8 22 83 44 165
23 83 54 200 71 260 16 61 64 236 105 390 41 154 81 303 89 330 8 28 24 88 36
135 12 47 26 99 32 115 10 33 69 254 117 437 l31 116 -86 149 c-89 151 -219
376 -259 448 -13 22 -56 96 -95 165 -40 69 -81 141 -92 160 -11 19 -46 80 -78
135 -32 55 -67 116 -77 135 -20 34 -43 74 -311 540 -75 129 -149 260 -166 291
-17 30 -64 114 -105 185 l-74 129 -106 29 c-58 16 -169 46 -246 67 -77 21
-174 47 -215 58 -41 11 -210 57 -375 101 -165 45 -316 86 -335 90 -19 5 -75
20 -125 33 -49 14 -126 35 -170 47 -81 21 -223 60 -480 130 -77 21 -228 61
-335 90 -107 28 -202 53 -210 55 -8 3 -136 -66 -285 -151z"/>
</g>
</svg>
